{
    "asset" : {
        "generator" : "Khronos glTF Blender I/O v1.7.33",
        "version" : "2.0"
    },
    "scene" : 0,
    "scenes" : [
        {
            "name" : "Scene",
            "nodes" : [
                0,
                1
            ]
        }
    ],
    "nodes" : [
        {
            "mesh" : 0,
            "name" : "654afec8452deb52eca729f4"
        },
        {
            "mesh" : 1,
            "name" : "654afec8452deb52eca729f4.054"
        }
    ],
    "animations" : [
        {
            "channels" : [
                {
                    "sampler" : 0,
                    "target" : {
                        "node" : 0,
                        "path" : "translation"
                    }
                },
                {
                    "sampler" : 1,
                    "target" : {
                        "node" : 0,
                        "path" : "rotation"
                    }
                }
            ],
            "name" : "close",
            "samplers" : [
                {
                    "input" : 24,
                    "interpolation" : "LINEAR",
                    "output" : 25
                },
                {
                    "input" : 24,
                    "interpolation" : "LINEAR",
                    "output" : 26
                }
            ]
        },
        {
            "channels" : [
                {
                    "sampler" : 0,
                    "target" : {
                        "node" : 0,
                        "path" : "translation"
                    }
                },
                {
                    "sampler" : 1,
                    "target" : {
                        "node" : 0,
                        "path" : "rotation"
                    }
                }
            ],
            "name" : "open",
            "samplers" : [
                {
                    "input" : 24,
                    "interpolation" : "LINEAR",
                    "output" : 27
                },
                {
                    "input" : 24,
                    "interpolation" : "LINEAR",
                    "output" : 28
                }
            ]
        }
    ],
    "materials" : [
        {
            "doubleSided" : true,
            "name" : "ID9",
            "pbrMetallicRoughness" : {
                "baseColorFactor" : [
                    0.9764710068702698,
                    0.7098039984703064,
                    0.003921569790691137,
                    1
                ],
                "metallicFactor" : 0,
                "roughnessFactor" : 0.5
            }
        },
        {
            "doubleSided" : true,
            "name" : "ID16",
            "pbrMetallicRoughness" : {
                "baseColorFactor" : [
                    0.6156859993934631,
                    0.8117650151252747,
                    0.9254899621009827,
                    1
                ],
                "metallicFactor" : 0,
                "roughnessFactor" : 0.5
            }
        },
        {
            "doubleSided" : true,
            "name" : "ID354",
            "pbrMetallicRoughness" : {
                "baseColorFactor" : [
                    0.9686269760131836,
                    0.5254899859428406,
                    0.003921569790691137,
                    1
                ],
                "metallicFactor" : 0,
                "roughnessFactor" : 0.5
            }
        },
        {
            "doubleSided" : true,
            "name" : "ID361",
            "pbrMetallicRoughness" : {
                "baseColorFactor" : [
                    0.49803900718688965,
                    0.49803900718688965,
                    0.49803900718688965,
                    1
                ],
                "metallicFactor" : 0,
                "roughnessFactor" : 0.5
            }
        },
        {
            "doubleSided" : true,
            "name" : "ID368",
            "pbrMetallicRoughness" : {
                "baseColorFactor" : [
                    0.9137250185012817,
                    0.9137250185012817,
                    0.9137250185012817,
                    1
                ],
                "metallicFactor" : 0,
                "roughnessFactor" : 0.5
            }
        },
        {
            "doubleSided" : true,
            "name" : "ID375",
            "pbrMetallicRoughness" : {
                "baseColorFactor" : [
                    0.764706015586853,
                    0.8862749934196472,
                    0.9490199685096741,
                    1
                ],
                "metallicFactor" : 0,
                "roughnessFactor" : 0.5
            }
        },
        {
            "doubleSided" : true,
            "name" : "ID382",
            "pbrMetallicRoughness" : {
                "baseColorFactor" : [
                    0.23137299716472626,
                    0.37647101283073425,
                    0.7058820128440857,
                    1
                ],
                "metallicFactor" : 0,
                "roughnessFactor" : 0.5
            }
        },
        {
            "doubleSided" : true,
            "name" : "ID335",
            "pbrMetallicRoughness" : {
                "baseColorFactor" : [
                    0.6470590233802795,
                    0.6470590233802795,
                    0.6470590233802795,
                    1
                ],
                "metallicFactor" : 0,
                "roughnessFactor" : 0.5
            }
        }
    ],
    "meshes" : [
        {
            "name" : "ID3",
            "primitives" : [
                {
                    "attributes" : {
                        "POSITION" : 0,
                        "NORMAL" : 1
                    },
                    "indices" : 2,
                    "material" : 0
                },
                {
                    "attributes" : {
                        "POSITION" : 3,
                        "NORMAL" : 4
                    },
                    "indices" : 5,
                    "material" : 1
                },
                {
                    "attributes" : {
                        "POSITION" : 6,
                        "NORMAL" : 7
                    },
                    "indices" : 8,
                    "material" : 2
                },
                {
                    "attributes" : {
                        "POSITION" : 9,
                        "NORMAL" : 10
                    },
                    "indices" : 11,
                    "material" : 3
                },
                {
                    "attributes" : {
                        "POSITION" : 12,
                        "NORMAL" : 13
                    },
                    "indices" : 14,
                    "material" : 4
                },
                {
                    "attributes" : {
                        "POSITION" : 15,
                        "NORMAL" : 16
                    },
                    "indices" : 17,
                    "material" : 5
                },
                {
                    "attributes" : {
                        "POSITION" : 18,
                        "NORMAL" : 19
                    },
                    "indices" : 20,
                    "material" : 6
                }
            ]
        },
        {
            "name" : "ID329",
            "primitives" : [
                {
                    "attributes" : {
                        "POSITION" : 21,
                        "NORMAL" : 22
                    },
                    "indices" : 23,
                    "material" : 7
                }
            ]
        }
    ],
    "accessors" : [
        {
            "bufferView" : 0,
            "componentType" : 5126,
            "count" : 1869,
            "max" : [
                0.04500000178813934,
                0.03350000083446503,
                0.04500000178813934
            ],
            "min" : [
                -0.04500000178813934,
                0.015000000596046448,
                -0.04500000178813934
            ],
            "type" : "VEC3"
        },
        {
            "bufferView" : 1,
            "componentType" : 5126,
            "count" : 1869,
            "type" : "VEC3"
        },
        {
            "bufferView" : 2,
            "componentType" : 5123,
            "count" : 3360,
            "type" : "SCALAR"
        },
        {
            "bufferView" : 3,
            "componentType" : 5126,
            "count" : 1152,
            "max" : [
                0.04400000348687172,
                0.03280000016093254,
                0.04400000348687172
            ],
            "min" : [
                -0.04400000348687172,
                0.01769999973475933,
                -0.04400000348687172
            ],
            "type" : "VEC3"
        },
        {
            "bufferView" : 4,
            "componentType" : 5126,
            "count" : 1152,
            "type" : "VEC3"
        },
        {
            "bufferView" : 5,
            "componentType" : 5123,
            "count" : 1728,
            "type" : "SCALAR"
        },
        {
            "bufferView" : 6,
            "componentType" : 5126,
            "count" : 65,
            "max" : [
                -0.0020000000949949026,
                0.05350000038743019,
                0.019899699836969376
            ],
            "min" : [
                -0.019899699836969376,
                0.04749999940395355,
                0.0020000000949949026
            ],
            "type" : "VEC3"
        },
        {
            "bufferView" : 7,
            "componentType" : 5126,
            "count" : 65,
            "type" : "VEC3"
        },
        {
            "bufferView" : 8,
            "componentType" : 5123,
            "count" : 108,
            "type" : "SCALAR"
        },
        {
            "bufferView" : 9,
            "componentType" : 5126,
            "count" : 65,
            "max" : [
                0.019899699836969376,
                0.05350000038743019,
                0.019899699836969376
            ],
            "min" : [
                0.0020000000949949026,
                0.04749999940395355,
                0.0020000000949949026
            ],
            "type" : "VEC3"
        },
        {
            "bufferView" : 10,
            "componentType" : 5126,
            "count" : 65,
            "type" : "VEC3"
        },
        {
            "bufferView" : 11,
            "componentType" : 5123,
            "count" : 108,
            "type" : "SCALAR"
        },
        {
            "bufferView" : 12,
            "componentType" : 5126,
            "count" : 67,
            "max" : [
                0.019899699836969376,
                0.05350000038743019,
                -0.0020000000949949026
            ],
            "min" : [
                0.0020000000949949026,
                0.04749999940395355,
                -0.019899699836969376
            ],
            "type" : "VEC3"
        },
        {
            "bufferView" : 13,
            "componentType" : 5126,
            "count" : 67,
            "type" : "VEC3"
        },
        {
            "bufferView" : 14,
            "componentType" : 5123,
            "count" : 108,
            "type" : "SCALAR"
        },
        {
            "bufferView" : 15,
            "componentType" : 5126,
            "count" : 70,
            "max" : [
                -0.0020000000949949026,
                0.05350000038743019,
                -0.0020000000949949026
            ],
            "min" : [
                -0.019899699836969376,
                0.04749999940395355,
                -0.019899699836969376
            ],
            "type" : "VEC3"
        },
        {
            "bufferView" : 16,
            "componentType" : 5126,
            "count" : 70,
            "type" : "VEC3"
        },
        {
            "bufferView" : 17,
            "componentType" : 5123,
            "count" : 108,
            "type" : "SCALAR"
        },
        {
            "bufferView" : 18,
            "componentType" : 5126,
            "count" : 12342,
            "max" : [
                0.04800000041723251,
                0.05350000038743019,
                0.04800000041723251
            ],
            "min" : [
                -0.04800000041723251,
                -0.04749999940395355,
                -0.04800000041723251
            ],
            "type" : "VEC3"
        },
        {
            "bufferView" : 19,
            "componentType" : 5126,
            "count" : 12342,
            "type" : "VEC3"
        },
        {
            "bufferView" : 20,
            "componentType" : 5123,
            "count" : 24186,
            "type" : "SCALAR"
        },
        {
            "bufferView" : 21,
            "componentType" : 5126,
            "count" : 1542,
            "max" : [
                0.04999999701976776,
                -0.0024999999441206455,
                0.04999999701976776
            ],
            "min" : [
                -0.04999999701976776,
                -0.05249999836087227,
                -0.04999999701976776
            ],
            "type" : "VEC3"
        },
        {
            "bufferView" : 22,
            "componentType" : 5126,
            "count" : 1542,
            "type" : "VEC3"
        },
        {
            "bufferView" : 23,
            "componentType" : 5123,
            "count" : 5580,
            "type" : "SCALAR"
        },
        {
            "bufferView" : 24,
            "componentType" : 5126,
            "count" : 61,
            "max" : [
                2.5
            ],
            "min" : [
                0
            ],
            "type" : "SCALAR"
        },
        {
            "bufferView" : 25,
            "componentType" : 5126,
            "count" : 61,
            "type" : "VEC3"
        },
        {
            "bufferView" : 26,
            "componentType" : 5126,
            "count" : 61,
            "type" : "VEC4"
        },
        {
            "bufferView" : 27,
            "componentType" : 5126,
            "count" : 61,
            "type" : "VEC3"
        },
        {
            "bufferView" : 28,
            "componentType" : 5126,
            "count" : 61,
            "type" : "VEC4"
        }
    ],
    "bufferViews" : [
        {
            "buffer" : 0,
            "byteLength" : 22428,
            "byteOffset" : 0
        },
        {
            "buffer" : 0,
            "byteLength" : 22428,
            "byteOffset" : 22428
        },
        {
            "buffer" : 0,
            "byteLength" : 6720,
            "byteOffset" : 44856
        },
        {
            "buffer" : 0,
            "byteLength" : 13824,
            "byteOffset" : 51576
        },
        {
            "buffer" : 0,
            "byteLength" : 13824,
            "byteOffset" : 65400
        },
        {
            "buffer" : 0,
            "byteLength" : 3456,
            "byteOffset" : 79224
        },
        {
            "buffer" : 0,
            "byteLength" : 780,
            "byteOffset" : 82680
        },
        {
            "buffer" : 0,
            "byteLength" : 780,
            "byteOffset" : 83460
        },
        {
            "buffer" : 0,
            "byteLength" : 216,
            "byteOffset" : 84240
        },
        {
            "buffer" : 0,
            "byteLength" : 780,
            "byteOffset" : 84456
        },
        {
            "buffer" : 0,
            "byteLength" : 780,
            "byteOffset" : 85236
        },
        {
            "buffer" : 0,
            "byteLength" : 216,
            "byteOffset" : 86016
        },
        {
            "buffer" : 0,
            "byteLength" : 804,
            "byteOffset" : 86232
        },
        {
            "buffer" : 0,
            "byteLength" : 804,
            "byteOffset" : 87036
        },
        {
            "buffer" : 0,
            "byteLength" : 216,
            "byteOffset" : 87840
        },
        {
            "buffer" : 0,
            "byteLength" : 840,
            "byteOffset" : 88056
        },
        {
            "buffer" : 0,
            "byteLength" : 840,
            "byteOffset" : 88896
        },
        {
            "buffer" : 0,
            "byteLength" : 216,
            "byteOffset" : 89736
        },
        {
            "buffer" : 0,
            "byteLength" : 148104,
            "byteOffset" : 89952
        },
        {
            "buffer" : 0,
            "byteLength" : 148104,
            "byteOffset" : 238056
        },
        {
            "buffer" : 0,
            "byteLength" : 48372,
            "byteOffset" : 386160
        },
        {
            "buffer" : 0,
            "byteLength" : 18504,
            "byteOffset" : 434532
        },
        {
            "buffer" : 0,
            "byteLength" : 18504,
            "byteOffset" : 453036
        },
        {
            "buffer" : 0,
            "byteLength" : 11160,
            "byteOffset" : 471540
        },
        {
            "buffer" : 0,
            "byteLength" : 244,
            "byteOffset" : 482700
        },
        {
            "buffer" : 0,
            "byteLength" : 732,
            "byteOffset" : 482944
        },
        {
            "buffer" : 0,
            "byteLength" : 976,
            "byteOffset" : 483676
        },
        {
            "buffer" : 0,
            "byteLength" : 732,
            "byteOffset" : 484652
        },
        {
            "buffer" : 0,
            "byteLength" : 976,
            "byteOffset" : 485384
        }
    ],
    "buffers" : [
        {
            "byteLength" : 486360,
            "uri" : "data:application/octet-stream;base64,"
        }
    ]
}
