{
    "asset" : {
        "generator" : "Khronos glTF Blender I/O v1.7.33",
        "version" : "2.0"
    },
    "scene" : 0,
    "scenes" : [
        {
            "name" : "Scene",
            "nodes" : [
                0,
                1,
                2,
                3,
                4,
                5,
                6,
                7
            ]
        }
    ],
    "nodes" : [
        {
            "mesh" : 0,
            "name" : "65481ab20629a77206b4739e"
        },
        {
            "mesh" : 1,
            "name" : "65481ab20629a77206b4739e.001"
        },
        {
            "mesh" : 2,
            "name" : "65481ab20629a77206b4739e.004"
        },
        {
            "mesh" : 3,
            "name" : "65481ab20629a77206b4739e.005"
        },
        {
            "mesh" : 4,
            "name" : "65481ab20629a77206b4739e.006"
        },
        {
            "mesh" : 5,
            "name" : "65481ab20629a77206b4739e.009"
        },
        {
            "mesh" : 6,
            "name" : "65481ab20629a77206b4739e.010"
        },
        {
            "mesh" : 7,
            "name" : "65481ab20629a77206b4739e.011"
        }
    ],
    "animations" : [
        {
            "channels" : [
                {
                    "sampler" : 0,
                    "target" : {
                        "node" : 1,
                        "path" : "translation"
                    }
                }
            ],
            "name" : "open",
            "samplers" : [
                {
                    "input" : 36,
                    "interpolation" : "LINEAR",
                    "output" : 37
                }
            ]
        },
        {
            "channels" : [
                {
                    "sampler" : 0,
                    "target" : {
                        "node" : 4,
                        "path" : "translation"
                    }
                }
            ],
            "name" : "65481ab20629a77206b4739e.006Action",
            "samplers" : [
                {
                    "input" : 36,
                    "interpolation" : "LINEAR",
                    "output" : 38
                }
            ]
        }
    ],
    "materials" : [
        {
            "doubleSided" : true,
            "name" : "ID9",
            "pbrMetallicRoughness" : {
                "baseColorFactor" : [
                    0.9137250185012817,
                    0.9137250185012817,
                    0.9137250185012817,
                    1
                ],
                "metallicFactor" : 0,
                "roughnessFactor" : 0.5
            }
        },
        {
            "doubleSided" : true,
            "name" : "ID16",
            "pbrMetallicRoughness" : {
                "baseColorFactor" : [
                    0.9764710068702698,
                    0.7098039984703064,
                    0.003921569790691137,
                    1
                ],
                "metallicFactor" : 0,
                "roughnessFactor" : 0.5
            }
        },
        {
            "doubleSided" : true,
            "name" : "ID23",
            "pbrMetallicRoughness" : {
                "baseColorFactor" : [
                    0.49803900718688965,
                    0.49803900718688965,
                    0.49803900718688965,
                    1
                ],
                "metallicFactor" : 0,
                "roughnessFactor" : 0.5
            }
        },
        {
            "doubleSided" : true,
            "name" : "ID30",
            "pbrMetallicRoughness" : {
                "baseColorFactor" : [
                    0.9686269760131836,
                    0.5254899859428406,
                    0.003921569790691137,
                    1
                ],
                "metallicFactor" : 0,
                "roughnessFactor" : 0.5
            }
        },
        {
            "doubleSided" : true,
            "name" : "ID37",
            "pbrMetallicRoughness" : {
                "baseColorFactor" : [
                    0.6470590233802795,
                    0.6470590233802795,
                    0.6470590233802795,
                    1
                ],
                "metallicFactor" : 0,
                "roughnessFactor" : 0.5
            }
        },
        {
            "doubleSided" : true,
            "name" : "ID68",
            "pbrMetallicRoughness" : {
                "baseColorFactor" : [
                    0.764706015586853,
                    0.8862749934196472,
                    0.9490199685096741,
                    1
                ],
                "metallicFactor" : 0,
                "roughnessFactor" : 0.5
            }
        }
    ],
    "meshes" : [
        {
            "name" : "ID3",
            "primitives" : [
                {
                    "attributes" : {
                        "POSITION" : 0,
                        "NORMAL" : 1
                    },
                    "indices" : 2,
                    "material" : 0
                }
            ]
        },
        {
            "name" : "ID10",
            "primitives" : [
                {
                    "attributes" : {
                        "POSITION" : 3,
                        "NORMAL" : 4
                    },
                    "indices" : 5,
                    "material" : 1
                },
                {
                    "attributes" : {
                        "POSITION" : 6,
                        "NORMAL" : 7
                    },
                    "indices" : 8,
                    "material" : 2
                },
                {
                    "attributes" : {
                        "POSITION" : 9,
                        "NORMAL" : 10
                    },
                    "indices" : 11,
                    "material" : 3
                }
            ]
        },
        {
            "name" : "ID31",
            "primitives" : [
                {
                    "attributes" : {
                        "POSITION" : 12,
                        "NORMAL" : 13
                    },
                    "indices" : 14,
                    "material" : 4
                }
            ]
        },
        {
            "name" : "ID38",
            "primitives" : [
                {
                    "attributes" : {
                        "POSITION" : 15,
                        "NORMAL" : 16
                    },
                    "indices" : 17,
                    "material" : 2
                }
            ]
        },
        {
            "name" : "ID44",
            "primitives" : [
                {
                    "attributes" : {
                        "POSITION" : 18,
                        "NORMAL" : 19
                    },
                    "indices" : 20,
                    "material" : 1
                },
                {
                    "attributes" : {
                        "POSITION" : 21,
                        "NORMAL" : 22
                    },
                    "indices" : 23,
                    "material" : 2
                },
                {
                    "attributes" : {
                        "POSITION" : 24,
                        "NORMAL" : 25
                    },
                    "indices" : 26,
                    "material" : 3
                }
            ]
        },
        {
            "name" : "ID62",
            "primitives" : [
                {
                    "attributes" : {
                        "POSITION" : 27,
                        "NORMAL" : 28
                    },
                    "indices" : 29,
                    "material" : 5
                }
            ]
        },
        {
            "name" : "ID69",
            "primitives" : [
                {
                    "attributes" : {
                        "POSITION" : 30,
                        "NORMAL" : 31
                    },
                    "indices" : 32,
                    "material" : 4
                }
            ]
        },
        {
            "name" : "ID75",
            "primitives" : [
                {
                    "attributes" : {
                        "POSITION" : 33,
                        "NORMAL" : 34
                    },
                    "indices" : 35,
                    "material" : 0
                }
            ]
        }
    ],
    "accessors" : [
        {
            "bufferView" : 0,
            "componentType" : 5126,
            "count" : 91,
            "max" : [
                0.0494999997317791,
                -0.042500000447034836,
                0.0364999994635582
            ],
            "min" : [
                -0.0494999997317791,
                -0.04569999873638153,
                -0.0364999994635582
            ],
            "type" : "VEC3"
        },
        {
            "bufferView" : 1,
            "componentType" : 5126,
            "count" : 91,
            "type" : "VEC3"
        },
        {
            "bufferView" : 2,
            "componentType" : 5123,
            "count" : 132,
            "type" : "SCALAR"
        },
        {
            "bufferView" : 3,
            "componentType" : 5126,
            "count" : 310,
            "max" : [
                -3.279320149902791e-17,
                0.012670000083744526,
                0.044499997049570084
            ],
            "min" : [
                -0.012723400257527828,
                -0.012663300149142742,
                0.042500000447034836
            ],
            "type" : "VEC3"
        },
        {
            "bufferView" : 4,
            "componentType" : 5126,
            "count" : 310,
            "type" : "VEC3"
        },
        {
            "bufferView" : 5,
            "componentType" : 5123,
            "count" : 516,
            "type" : "SCALAR"
        },
        {
            "bufferView" : 6,
            "componentType" : 5126,
            "count" : 24,
            "max" : [
                -0.0015999999595806003,
                0.04100000113248825,
                0.04270000010728836
            ],
            "min" : [
                -0.055993299931287766,
                -0.04099329933524132,
                0.04050000011920929
            ],
            "type" : "VEC3"
        },
        {
            "bufferView" : 7,
            "componentType" : 5126,
            "count" : 24,
            "type" : "VEC3"
        },
        {
            "bufferView" : 8,
            "componentType" : 5123,
            "count" : 36,
            "type" : "SCALAR"
        },
        {
            "bufferView" : 9,
            "componentType" : 5126,
            "count" : 779,
            "max" : [
                0,
                0.045399997383356094,
                0.044499997049570084
            ],
            "min" : [
                -0.057499997317790985,
                -0.045399997383356094,
                0.0364999994635582
            ],
            "type" : "VEC3"
        },
        {
            "bufferView" : 10,
            "componentType" : 5126,
            "count" : 779,
            "type" : "VEC3"
        },
        {
            "bufferView" : 11,
            "componentType" : 5123,
            "count" : 1380,
            "type" : "SCALAR"
        },
        {
            "bufferView" : 12,
            "componentType" : 5126,
            "count" : 352,
            "max" : [
                -0.051500000059604645,
                0.04100000113248825,
                0.03500000014901161
            ],
            "min" : [
                -0.05570000037550926,
                -0.04099329933524132,
                -0.03700000047683716
            ],
            "type" : "VEC3"
        },
        {
            "bufferView" : 13,
            "componentType" : 5126,
            "count" : 352,
            "type" : "VEC3"
        },
        {
            "bufferView" : 14,
            "componentType" : 5123,
            "count" : 564,
            "type" : "SCALAR"
        },
        {
            "bufferView" : 15,
            "componentType" : 5126,
            "count" : 3187,
            "max" : [
                0.057499997317790985,
                0.04749999940395355,
                0.044499997049570084
            ],
            "min" : [
                -0.057499997317790985,
                -0.04749999940395355,
                -0.044499997049570084
            ],
            "type" : "VEC3"
        },
        {
            "bufferView" : 16,
            "componentType" : 5126,
            "count" : 3187,
            "type" : "VEC3"
        },
        {
            "bufferView" : 17,
            "componentType" : 5123,
            "count" : 6048,
            "type" : "SCALAR"
        },
        {
            "bufferView" : 18,
            "componentType" : 5126,
            "count" : 325,
            "max" : [
                0.012723400257527828,
                0.012670000083744526,
                0.044499997049570084
            ],
            "min" : [
                3.197440188044127e-17,
                -0.012663300149142742,
                0.042500000447034836
            ],
            "type" : "VEC3"
        },
        {
            "bufferView" : 19,
            "componentType" : 5126,
            "count" : 325,
            "type" : "VEC3"
        },
        {
            "bufferView" : 20,
            "componentType" : 5123,
            "count" : 516,
            "type" : "SCALAR"
        },
        {
            "bufferView" : 21,
            "componentType" : 5126,
            "count" : 24,
            "max" : [
                0.05579330027103424,
                0.04079999774694443,
                0.04270000010728836
            ],
            "min" : [
                0.0017999999690800905,
                -0.04079329967498779,
                0.04050000011920929
            ],
            "type" : "VEC3"
        },
        {
            "bufferView" : 22,
            "componentType" : 5126,
            "count" : 24,
            "type" : "VEC3"
        },
        {
            "bufferView" : 23,
            "componentType" : 5123,
            "count" : 36,
            "type" : "SCALAR"
        },
        {
            "bufferView" : 24,
            "componentType" : 5126,
            "count" : 808,
            "max" : [
                0.057499997317790985,
                0.045399997383356094,
                0.044499997049570084
            ],
            "min" : [
                2.131630045606494e-17,
                -0.045399997383356094,
                0.0364999994635582
            ],
            "type" : "VEC3"
        },
        {
            "bufferView" : 25,
            "componentType" : 5126,
            "count" : 808,
            "type" : "VEC3"
        },
        {
            "bufferView" : 26,
            "componentType" : 5123,
            "count" : 1428,
            "type" : "SCALAR"
        },
        {
            "bufferView" : 27,
            "componentType" : 5126,
            "count" : 24,
            "max" : [
                0.0560000017285347,
                0.04100000113248825,
                -0.04050000011920929
            ],
            "min" : [
                -0.0560167022049427,
                -0.04099329933524132,
                -0.04270000010728836
            ],
            "type" : "VEC3"
        },
        {
            "bufferView" : 28,
            "componentType" : 5126,
            "count" : 24,
            "type" : "VEC3"
        },
        {
            "bufferView" : 29,
            "componentType" : 5123,
            "count" : 36,
            "type" : "SCALAR"
        },
        {
            "bufferView" : 30,
            "componentType" : 5126,
            "count" : 343,
            "max" : [
                0.05570000037550926,
                0.04100000113248825,
                0.03500000014901161
            ],
            "min" : [
                0.051500000059604645,
                -0.04099329933524132,
                -0.03700000047683716
            ],
            "type" : "VEC3"
        },
        {
            "bufferView" : 31,
            "componentType" : 5126,
            "count" : 343,
            "type" : "VEC3"
        },
        {
            "bufferView" : 32,
            "componentType" : 5123,
            "count" : 564,
            "type" : "SCALAR"
        },
        {
            "bufferView" : 33,
            "componentType" : 5126,
            "count" : 94,
            "max" : [
                0.0494999997317791,
                0.04569999873638153,
                0.0364999994635582
            ],
            "min" : [
                -0.0494999997317791,
                0.042500000447034836,
                -0.0364999994635582
            ],
            "type" : "VEC3"
        },
        {
            "bufferView" : 34,
            "componentType" : 5126,
            "count" : 94,
            "type" : "VEC3"
        },
        {
            "bufferView" : 35,
            "componentType" : 5123,
            "count" : 132,
            "type" : "SCALAR"
        },
        {
            "bufferView" : 36,
            "componentType" : 5126,
            "count" : 61,
            "max" : [
                2.5
            ],
            "min" : [
                0
            ],
            "type" : "SCALAR"
        },
        {
            "bufferView" : 37,
            "componentType" : 5126,
            "count" : 61,
            "type" : "VEC3"
        },
        {
            "bufferView" : 38,
            "componentType" : 5126,
            "count" : 61,
            "type" : "VEC3"
        }
    ],
    "bufferViews" : [
        {
            "buffer" : 0,
            "byteLength" : 1092,
            "byteOffset" : 0
        },
        {
            "buffer" : 0,
            "byteLength" : 1092,
            "byteOffset" : 1092
        },
        {
            "buffer" : 0,
            "byteLength" : 264,
            "byteOffset" : 2184
        },
        {
            "buffer" : 0,
            "byteLength" : 3720,
            "byteOffset" : 2448
        },
        {
            "buffer" : 0,
            "byteLength" : 3720,
            "byteOffset" : 6168
        },
        {
            "buffer" : 0,
            "byteLength" : 1032,
            "byteOffset" : 9888
        },
        {
            "buffer" : 0,
            "byteLength" : 288,
            "byteOffset" : 10920
        },
        {
            "buffer" : 0,
            "byteLength" : 288,
            "byteOffset" : 11208
        },
        {
            "buffer" : 0,
            "byteLength" : 72,
            "byteOffset" : 11496
        },
        {
            "buffer" : 0,
            "byteLength" : 9348,
            "byteOffset" : 11568
        },
        {
            "buffer" : 0,
            "byteLength" : 9348,
            "byteOffset" : 20916
        },
        {
            "buffer" : 0,
            "byteLength" : 2760,
            "byteOffset" : 30264
        },
        {
            "buffer" : 0,
            "byteLength" : 4224,
            "byteOffset" : 33024
        },
        {
            "buffer" : 0,
            "byteLength" : 4224,
            "byteOffset" : 37248
        },
        {
            "buffer" : 0,
            "byteLength" : 1128,
            "byteOffset" : 41472
        },
        {
            "buffer" : 0,
            "byteLength" : 38244,
            "byteOffset" : 42600
        },
        {
            "buffer" : 0,
            "byteLength" : 38244,
            "byteOffset" : 80844
        },
        {
            "buffer" : 0,
            "byteLength" : 12096,
            "byteOffset" : 119088
        },
        {
            "buffer" : 0,
            "byteLength" : 3900,
            "byteOffset" : 131184
        },
        {
            "buffer" : 0,
            "byteLength" : 3900,
            "byteOffset" : 135084
        },
        {
            "buffer" : 0,
            "byteLength" : 1032,
            "byteOffset" : 138984
        },
        {
            "buffer" : 0,
            "byteLength" : 288,
            "byteOffset" : 140016
        },
        {
            "buffer" : 0,
            "byteLength" : 288,
            "byteOffset" : 140304
        },
        {
            "buffer" : 0,
            "byteLength" : 72,
            "byteOffset" : 140592
        },
        {
            "buffer" : 0,
            "byteLength" : 9696,
            "byteOffset" : 140664
        },
        {
            "buffer" : 0,
            "byteLength" : 9696,
            "byteOffset" : 150360
        },
        {
            "buffer" : 0,
            "byteLength" : 2856,
            "byteOffset" : 160056
        },
        {
            "buffer" : 0,
            "byteLength" : 288,
            "byteOffset" : 162912
        },
        {
            "buffer" : 0,
            "byteLength" : 288,
            "byteOffset" : 163200
        },
        {
            "buffer" : 0,
            "byteLength" : 72,
            "byteOffset" : 163488
        },
        {
            "buffer" : 0,
            "byteLength" : 4116,
            "byteOffset" : 163560
        },
        {
            "buffer" : 0,
            "byteLength" : 4116,
            "byteOffset" : 167676
        },
        {
            "buffer" : 0,
            "byteLength" : 1128,
            "byteOffset" : 171792
        },
        {
            "buffer" : 0,
            "byteLength" : 1128,
            "byteOffset" : 172920
        },
        {
            "buffer" : 0,
            "byteLength" : 1128,
            "byteOffset" : 174048
        },
        {
            "buffer" : 0,
            "byteLength" : 264,
            "byteOffset" : 175176
        },
        {
            "buffer" : 0,
            "byteLength" : 244,
            "byteOffset" : 175440
        },
        {
            "buffer" : 0,
            "byteLength" : 732,
            "byteOffset" : 175684
        },
        {
            "buffer" : 0,
            "byteLength" : 732,
            "byteOffset" : 176416
        }
    ],
    "buffers" : [
        {
            "byteLength" : 177148,
            "uri" : "data:application/octet-stream;base64,"
        }
    ]
}
